<?xml version="1.0" encoding="utf-8"?>
<!-- Generator: Adobe Illustrator 15.0.2, SVG Export Plug-In . SVG Version: 6.00 Build 0)  -->
<!DOCTYPE svg PUBLIC "-//W3C//DTD SVG 1.1//EN" "http://www.w3.org/Graphics/SVG/1.1/DTD/svg11.dtd">
<svg version="1.1" id="Layer_1" xmlns="http://www.w3.org/2000/svg" xmlns:xlink="http://www.w3.org/1999/xlink" x="0px" y="0px"
	 width="138.291px" height="139.681px" viewBox="0 0 138.291 139.681" enable-background="new 0 0 138.291 139.681"
	 xml:space="preserve">
<g>
	<path fill="#231F20" d="M21.725,54.923c0,6.003-4.867,10.863-10.867,10.863C4.867,65.786,0,60.926,0,54.923V10.863
		C0,4.865,4.867,0,10.857,0h44.074c5.99,0,10.857,4.865,10.857,10.863c0,5.998-4.867,10.859-10.857,10.859H36.065
		c-13.795-0.181-14.435,3.748-14.341,16.352V54.923z"/>
	<path fill-rule="evenodd" clip-rule="evenodd" fill="#EB2227" d="M36.354,27.688h18.715c4.783,0,8.701,3.918,8.701,8.707v18.717
		c0,4.791-3.918,8.704-8.701,8.704H36.354c-4.789,0-8.707-3.913-8.707-8.704V36.396C27.646,31.607,31.564,27.688,36.354,27.688z"/>
	<path fill="#231F20" d="M116.566,54.923c0,6.003,4.856,10.863,10.862,10.863c6,0,10.862-4.86,10.862-10.863V10.863
		C138.291,4.865,133.429,0,127.429,0H83.37c-6.006,0-10.873,4.865-10.873,10.863c0,5.998,4.867,10.859,10.873,10.859h18.856
		c13.789-0.181,14.429,3.748,14.34,16.352V54.923z"/>
	<path fill-rule="evenodd" clip-rule="evenodd" fill="#FFCB0A" d="M101.938,27.688H83.234c-4.8,0-8.718,3.918-8.718,8.707v18.717
		c0,4.791,3.918,8.704,8.718,8.704h18.703c4.783,0,8.702-3.913,8.702-8.704V36.396C110.64,31.607,106.721,27.688,101.938,27.688z"/>
	<path fill="#231F20" d="M21.725,84.763c0-6.003-4.867-10.868-10.867-10.868C4.867,73.895,0,78.76,0,84.763v44.056
		c0,5.995,4.867,10.862,10.857,10.862h44.074c5.99,0,10.857-4.867,10.857-10.862c0-5.998-4.867-10.86-10.857-10.86H36.065
		c-13.795,0.191-14.435-3.745-14.341-16.346V84.763z"/>
	<path fill-rule="evenodd" clip-rule="evenodd" fill="#A5CD39" d="M36.354,111.99h18.715c4.783,0,8.701-3.918,8.701-8.709V84.577
		c0-4.789-3.918-8.709-8.701-8.709H36.354c-4.789,0-8.707,3.92-8.707,8.709v18.704C27.646,108.072,31.564,111.99,36.354,111.99z"/>
	<path fill="#231F20" d="M116.566,84.763c0-6.003,4.856-10.868,10.862-10.868c6,0,10.862,4.865,10.862,10.868v44.056
		c0,5.995-4.862,10.862-10.862,10.862H83.37c-6.006,0-10.873-4.867-10.873-10.862c0-5.998,4.867-10.86,10.873-10.86h18.856
		c13.789,0.191,14.429-3.745,14.34-16.346V84.763z"/>
	<path fill-rule="evenodd" clip-rule="evenodd" fill="#29ABE2" d="M101.938,111.99H83.234c-4.8,0-8.718-3.918-8.718-8.709V84.577
		c0-4.789,3.918-8.709,8.718-8.709h18.703c4.783,0,8.702,3.92,8.702,8.709v18.704C110.64,108.072,106.721,111.99,101.938,111.99z"/>
</g>
</svg>
